<svg width="19" height="15" viewBox="0 0 19 15" fill="none" xmlns="http://www.w3.org/2000/svg">
<path d="M18.4339 1.86724C17.7515 2.16912 17.0311 2.3578 16.2729 2.47103C17.0311 2.01822 17.6377 1.30129 17.9031 0.433447C17.1827 0.848522 16.3866 1.1504 15.5146 1.33909C14.8321 0.62221 13.8464 0.169461 12.7848 0.169497C10.7375 0.169566 9.06938 1.82983 9.06944 3.86735C9.06945 4.1692 9.10738 4.43333 9.18321 4.69745C6.11226 4.54662 3.34456 3.07517 1.48675 0.811322C1.18346 1.37731 0.993917 1.98103 0.99394 2.6602C0.993983 3.94309 1.63854 5.07502 2.66222 5.75416C2.05561 5.71645 1.48691 5.56554 0.956116 5.30144L0.956117 5.33917C0.956179 7.1503 2.24527 8.65953 3.95137 8.99906C3.64807 9.07454 3.30685 9.11228 2.96563 9.11229C2.73816 9.1123 2.47276 9.07458 2.24528 9.03685C2.7382 10.5084 4.10311 11.6026 5.73336 11.6025C4.44436 12.5836 2.85203 13.1873 1.10804 13.1874C0.804731 13.1874 0.501427 13.1874 0.236035 13.1497C1.90424 14.2061 3.83782 14.8098 5.96095 14.8097C12.8232 14.8095 16.5764 9.14956 16.5762 4.24441C16.5762 4.09349 16.5762 3.90483 16.5762 3.7539C17.2965 3.26336 17.941 2.6219 18.4339 1.86724Z" fill="#52525B"/>
</svg>
