<svg width="23" height="23" viewBox="0 0 23 23" fill="none" xmlns="http://www.w3.org/2000/svg">
<path d="M11.886 2.74862C14.8317 2.74852 15.1805 2.75949 16.3442 2.81226C17.0439 2.82076 17.7369 2.9486 18.3931 3.19022C18.869 3.37286 19.3013 3.65265 19.6619 4.01158C20.0226 4.37051 20.3038 4.80063 20.4873 5.27425C20.7301 5.92735 20.8586 6.61705 20.8672 7.31338C20.9198 8.4715 20.9314 8.81868 20.9315 11.7503C20.9316 14.682 20.9206 15.0292 20.8675 16.1873C20.859 16.8836 20.7305 17.5733 20.4878 18.2265C20.3042 18.7001 20.0231 19.1302 19.6625 19.4892C19.3018 19.8481 18.8696 20.128 18.3937 20.3106C17.7375 20.5523 17.0445 20.6802 16.3448 20.6887C15.1817 20.741 14.8328 20.7526 11.8866 20.7527C8.94031 20.7528 8.59147 20.7418 7.42831 20.689C6.72864 20.6805 6.03562 20.5527 5.37937 20.3111C4.90347 20.1284 4.47127 19.8486 4.11059 19.4897C3.74991 19.1308 3.46874 18.7007 3.28519 18.227C3.04237 17.5739 2.91387 16.8842 2.90529 16.1879C2.85271 15.0298 2.84114 14.6826 2.84104 11.7509C2.84094 8.81929 2.85196 8.47212 2.90498 7.31399C2.91352 6.61766 3.04197 5.92795 3.28475 5.27483C3.46827 4.8012 3.74941 4.37106 4.11006 4.01211C4.47072 3.65315 4.9029 3.37333 5.37879 3.19066C6.03503 2.94899 6.72804 2.82111 7.4277 2.81256C8.59139 2.76024 8.94023 2.74872 11.886 2.74862ZM11.8859 0.770134C8.8913 0.770236 8.51409 0.782797 7.33727 0.836168C6.42159 0.854325 5.51563 1.02691 4.65793 1.34657C3.92216 1.62249 3.25575 2.05486 2.70519 2.61351C2.14338 3.16168 1.70861 3.82532 1.43124 4.55806C1.1101 5.41168 0.936757 6.31333 0.918574 7.22465C0.866078 8.3948 0.853481 8.77021 0.853582 11.7505C0.853683 14.7308 0.866305 15.1062 0.919932 16.2774C0.938176 17.1887 1.11158 18.0903 1.43278 18.9439C1.70989 19.6766 2.14434 20.3402 2.70581 20.8884C3.25671 21.4471 3.92352 21.8795 4.65968 22.1552C5.5174 22.4748 6.42338 22.6473 7.33906 22.6654C8.51588 22.7177 8.89152 22.7312 11.8877 22.7311C14.8838 22.731 15.2595 22.7185 16.4363 22.6651C17.352 22.647 18.2579 22.4744 19.1156 22.1547C19.8483 21.8721 20.5136 21.4403 21.069 20.8872C21.6245 20.334 22.0578 19.6715 22.3413 18.9422C22.6624 18.0886 22.8358 17.1869 22.8539 16.2756C22.9064 15.1054 22.919 14.73 22.9189 11.7497C22.9188 8.76946 22.9062 8.39405 22.8526 7.22286C22.8343 6.31154 22.6609 5.40991 22.3397 4.55631C22.0626 3.82368 21.6282 3.16008 21.0667 2.61185C20.5158 2.0531 19.849 1.62077 19.1128 1.34503C18.2551 1.02543 17.3491 0.85291 16.4335 0.834814C15.2577 0.782568 14.8805 0.770033 11.8859 0.770134Z" fill="#52525B"/>
<path d="M11.8857 6.11065C10.7652 6.11069 9.6698 6.44141 8.73812 7.06101C7.80645 7.68061 7.08031 8.56124 6.65154 9.59156C6.22276 10.6219 6.1106 11.7556 6.32925 12.8493C6.54789 13.9431 7.08751 14.9477 7.87988 15.7363C8.67225 16.5248 9.68177 17.0618 10.7808 17.2793C11.8798 17.4968 13.0189 17.3851 14.0542 16.9583C15.0894 16.5315 15.9742 15.8088 16.5967 14.8815C17.2192 13.9543 17.5515 12.8641 17.5514 11.7489C17.5514 10.2535 16.9544 8.81937 15.8919 7.76199C14.8294 6.7046 13.3883 6.1106 11.8857 6.11065ZM11.886 15.4091C11.1587 15.4092 10.4476 15.1945 9.84285 14.7924C9.23807 14.3902 8.76668 13.8186 8.48832 13.1499C8.20995 12.4811 8.13709 11.7452 8.27897 11.0352C8.42084 10.3252 8.77108 9.67309 9.28538 9.16121C9.79967 8.64934 10.4549 8.30073 11.1683 8.15949C11.8817 8.01824 12.6211 8.0907 13.2931 8.36769C13.9651 8.64468 14.5395 9.11377 14.9436 9.71564C15.3477 10.3175 15.5634 11.0251 15.5634 11.749C15.5635 12.7197 15.1761 13.6506 14.4864 14.3371C13.7968 15.0235 12.8614 15.4091 11.886 15.4091Z" fill="#52525B"/>
<path d="M17.7736 7.20742C18.5048 7.20739 19.0975 6.61746 19.0975 5.88977C19.0974 5.16208 18.5047 4.5722 17.7735 4.57222C17.0423 4.57225 16.4496 5.16217 16.4496 5.88986C16.4497 6.61755 17.0424 7.20744 17.7736 7.20742Z" fill="#52525B"/>
</svg>
