<svg width="23" height="22" viewBox="0 0 23 22" fill="none" xmlns="http://www.w3.org/2000/svg">
<path fill-rule="evenodd" clip-rule="evenodd" d="M11.5305 0.769662C5.68222 0.76986 0.977331 5.45259 0.977529 11.273C0.977686 15.9118 4.01191 19.8503 8.18934 21.2506C8.71701 21.3381 8.89289 21.0317 8.89288 20.7254C8.89287 20.4628 8.89285 19.8064 8.89282 18.9311C5.94669 19.5877 5.33101 17.5309 5.33101 17.5309C4.84727 16.3055 4.1437 15.9992 4.1437 15.9992C3.17629 15.3428 4.23162 15.3428 4.23162 15.3428C5.28696 15.4303 5.85864 16.4368 5.85864 16.4368C6.78211 18.056 8.32113 17.5745 8.93674 17.3119C9.02466 16.6117 9.28848 16.1741 9.59628 15.9115C7.26573 15.649 4.80324 14.7301 4.80311 10.7039C4.80307 9.56613 5.19879 8.60334 5.90232 7.90312C5.81437 7.64055 5.41858 6.59027 5.99017 5.10232C5.99017 5.10232 6.86961 4.83972 8.89239 6.19629C9.72786 5.97745 10.6513 5.84613 11.5307 5.8461C12.4102 5.84607 13.3336 5.97732 14.1691 6.19611C16.1918 4.83941 17.0712 5.10195 17.0712 5.10195C17.6429 6.54609 17.2912 7.5964 17.1593 7.90274C17.8189 8.64668 18.2586 9.56567 18.2587 10.7035C18.2588 14.7296 15.7964 15.605 13.4219 15.8676C13.8176 16.1739 14.1255 16.8304 14.1255 17.7931C14.1255 19.1935 14.1256 20.3314 14.1256 20.6815C14.1256 20.944 14.3015 21.2941 14.8731 21.2066C19.0505 19.8498 22.0844 15.9111 22.0843 11.2723C22.0841 5.45188 17.3789 0.769464 11.5305 0.769662Z" fill="#52525B"/>
</svg>
